<?xml version="1.0" standalone="no"?>
<!DOCTYPE svg PUBLIC "-//W3C//DTD SVG 20010904//EN"
 "http://www.w3.org/TR/2001/REC-SVG-20010904/DTD/svg10.dtd">
<svg version="1.0" xmlns="http://www.w3.org/2000/svg"
 width="991.000000pt" height="148.000000pt" viewBox="0 0 991.000000 148.000000"
 preserveAspectRatio="xMidYMid meet">

<g transform="translate(0.000000,148.000000) scale(0.100000,-0.100000)"
fill="#E7EFF6" stroke="none">
<path d="M3008 1414 c-52 -34 -72 -67 -65 -109 6 -35 6 -35 -34 -35 -42 0 -56
-23 -19 -33 18 -5 20 -14 20 -116 l0 -111 -40 0 c-38 0 -40 -2 -40 -30 0 -24
4 -30 21 -30 15 0 19 -5 15 -15 -4 -10 1 -15 14 -15 19 0 20 -8 20 -189 l0
-190 -32 -3 c-25 -2 -33 -8 -34 -23 -1 -11 -2 -23 -3 -27 -1 -5 -20 10 -43 33
-23 22 -80 65 -127 96 -47 31 -103 70 -123 86 -37 28 -38 30 -38 98 0 38 4 69
8 69 5 0 16 6 26 13 16 12 14 13 -19 9 -48 -6 -85 27 -85 74 0 46 9 63 42 80
40 21 29 29 -15 10 -44 -18 -71 -65 -62 -106 6 -28 56 -80 76 -80 5 0 9 -28 9
-63 0 -58 -3 -65 -32 -94 -18 -16 -78 -60 -133 -96 -112 -73 -177 -137 -206
-203 -11 -24 -22 -44 -24 -44 -3 0 -5 38 -5 85 0 84 0 85 25 85 18 0 25 5 25
20 0 15 -7 20 -25 20 l-25 0 0 105 c0 63 4 105 10 105 6 0 10 5 10 10 0 6 -9
10 -21 10 -18 0 -20 4 -15 26 5 20 0 32 -28 60 -19 19 -39 34 -46 34 -7 0 -28
-16 -47 -35 -28 -28 -34 -40 -29 -60 6 -22 3 -25 -19 -25 -25 0 -35 -15 -14
-22 8 -3 12 -37 11 -103 -1 -100 -1 -100 -26 -103 -36 -5 -37 -42 -1 -42 l25
0 0 -270 0 -270 645 0 645 0 0 90 c0 53 4 90 10 90 6 0 10 -37 10 -90 l0 -90
40 0 40 0 0 64 c0 77 6 96 31 96 27 0 39 -31 39 -99 l0 -61 30 0 30 0 0 90 c0
50 4 90 9 90 5 0 16 3 25 6 14 5 16 -6 16 -90 l0 -96 100 0 100 0 0 166 c0 95
4 174 10 185 9 16 7 21 -15 29 -25 9 -25 10 -25 129 0 83 5 129 15 154 18 44
20 78 3 72 -33 -12 -40 11 -35 106 3 52 8 108 13 124 6 27 6 29 -9 17 -14 -12
-17 -10 -23 13 -4 15 -4 65 0 111 5 65 3 83 -6 82 -8 -2 -13 9 -14 27 -2 52
-4 57 -16 52 -8 -2 -13 -21 -13 -43 0 -33 -3 -38 -19 -36 -16 3 -18 -1 -11
-30 13 -59 16 -163 5 -178 -9 -13 -11 -13 -21 0 -8 11 -9 6 -4 -20 4 -19 9
-77 12 -127 5 -98 4 -100 -44 -94 -14 2 -11 -36 5 -66 8 -13 12 -73 12 -156 0
-129 -1 -135 -21 -140 -17 -5 -20 -10 -13 -24 4 -10 8 -45 9 -78 0 -58 -1 -60
-27 -63 -22 -3 -26 0 -21 17 10 37 -7 70 -50 100 l-44 30 -43 -38 c-38 -32
-44 -43 -43 -74 1 -33 -2 -37 -23 -37 -24 0 -24 0 -24 115 0 108 1 115 20 115
11 0 20 7 20 15 0 9 7 18 15 21 9 4 15 19 15 35 0 26 -3 29 -35 29 l-35 0 0
190 c0 183 1 190 20 190 11 0 20 7 20 15 0 8 7 15 15 15 10 0 15 10 15 30 0
28 -3 30 -35 30 l-35 0 0 110 c0 89 3 112 15 116 27 11 17 34 -14 34 -28 0
-29 2 -24 34 7 44 -8 69 -61 106 -25 16 -46 30 -48 29 -2 0 -20 -11 -40 -25z
m60 -216 c8 -8 12 -45 12 -101 l0 -88 -37 3 -36 3 2 90 c1 49 5 93 7 97 8 12
38 10 52 -4z m-1058 -524 c0 -94 0 -94 -25 -94 -25 0 -25 1 -25 88 0 88 9 115
36 105 11 -4 14 -28 14 -99z m857 -213 c3 -11 11 -17 18 -14 20 7 24 -38 22
-232 -2 -164 -3 -170 -23 -173 -42 -6 -47 20 -18 104 33 100 32 218 -4 278
-12 20 -22 41 -22 47 0 17 22 9 27 -10z m-753 -329 c20 -58 16 -82 -14 -82
-18 0 -20 6 -20 77 0 84 7 85 34 5z"/>
<path d="M7938 1414 c-52 -34 -72 -67 -65 -109 6 -35 6 -35 -34 -35 -42 0 -56
-23 -19 -33 18 -5 20 -14 20 -116 l0 -111 -40 0 c-38 0 -40 -2 -40 -30 0 -24
4 -30 21 -30 15 0 19 -5 15 -15 -4 -10 1 -15 14 -15 19 0 20 -8 20 -189 l0
-190 -32 -3 c-25 -2 -33 -8 -34 -23 -1 -11 -2 -23 -3 -27 -1 -5 -20 10 -43 33
-23 22 -80 65 -127 96 -47 31 -103 70 -123 86 -37 28 -38 30 -38 98 0 38 4 69
8 69 5 0 16 6 26 13 16 12 14 13 -19 9 -48 -6 -85 27 -85 74 0 46 9 63 42 80
40 21 29 29 -15 10 -44 -18 -71 -65 -62 -106 6 -28 56 -80 76 -80 5 0 9 -28 9
-63 0 -58 -3 -65 -32 -94 -18 -16 -78 -60 -133 -96 -112 -73 -177 -137 -206
-203 -11 -24 -22 -44 -24 -44 -3 0 -5 38 -5 85 0 84 0 85 25 85 18 0 25 5 25
20 0 15 -7 20 -25 20 l-25 0 0 105 c0 63 4 105 10 105 6 0 10 5 10 10 0 6 -9
10 -21 10 -18 0 -20 4 -15 26 5 20 0 32 -28 60 -19 19 -39 34 -46 34 -7 0 -28
-16 -47 -35 -28 -28 -34 -40 -29 -60 6 -22 3 -25 -19 -25 -25 0 -35 -15 -14
-22 8 -3 12 -37 11 -103 -1 -100 -1 -100 -26 -103 -36 -5 -37 -42 -1 -42 l25
0 0 -270 0 -270 645 0 645 0 0 90 c0 53 4 90 10 90 6 0 10 -37 10 -90 l0 -90
40 0 40 0 0 64 c0 77 6 96 31 96 27 0 39 -31 39 -99 l0 -61 30 0 30 0 0 90 c0
50 4 90 9 90 5 0 16 3 25 6 14 5 16 -6 16 -90 l0 -96 100 0 100 0 0 166 c0 95
4 174 10 185 9 16 7 21 -15 29 -25 9 -25 10 -25 129 0 83 5 129 15 154 18 44
20 78 3 72 -33 -12 -40 11 -35 106 3 52 8 108 13 124 6 27 6 29 -9 17 -14 -12
-17 -10 -23 13 -4 15 -4 65 0 111 5 65 3 83 -6 82 -8 -2 -13 9 -14 27 -2 52
-4 57 -16 52 -8 -2 -13 -21 -13 -43 0 -33 -3 -38 -19 -36 -16 3 -18 -1 -11
-30 13 -59 16 -163 5 -178 -9 -13 -11 -13 -21 0 -8 11 -9 6 -4 -20 4 -19 9
-77 12 -127 5 -98 4 -100 -44 -94 -14 2 -11 -36 5 -66 8 -13 12 -73 12 -156 0
-129 -1 -135 -21 -140 -17 -5 -20 -10 -13 -24 4 -10 8 -45 9 -78 0 -58 -1 -60
-27 -63 -22 -3 -26 0 -21 17 10 37 -7 70 -50 100 l-44 30 -43 -38 c-38 -32
-44 -43 -43 -74 1 -33 -2 -37 -23 -37 -24 0 -24 0 -24 115 0 108 1 115 20 115
11 0 20 7 20 15 0 9 7 18 15 21 9 4 15 19 15 35 0 26 -3 29 -35 29 l-35 0 0
190 c0 183 1 190 20 190 11 0 20 7 20 15 0 8 7 15 15 15 10 0 15 10 15 30 0
28 -3 30 -35 30 l-35 0 0 110 c0 89 3 112 15 116 27 11 17 34 -14 34 -28 0
-29 2 -24 34 7 44 -8 69 -61 106 -25 16 -46 30 -48 29 -2 0 -20 -11 -40 -25z
m60 -216 c8 -8 12 -45 12 -101 l0 -88 -37 3 -36 3 2 90 c1 49 5 93 7 97 8 12
38 10 52 -4z m-1058 -524 c0 -94 0 -94 -25 -94 -25 0 -25 1 -25 88 0 88 9 115
36 105 11 -4 14 -28 14 -99z m857 -213 c3 -11 11 -17 18 -14 20 7 24 -38 22
-232 -2 -164 -3 -170 -23 -173 -42 -6 -47 20 -18 104 33 100 32 218 -4 278
-12 20 -22 41 -22 47 0 17 22 9 27 -10z m-753 -329 c20 -58 16 -82 -14 -82
-18 0 -20 6 -20 77 0 84 7 85 34 5z"/>
<path d="M2508 1008 c-4 -10 -15 -18 -25 -18 -14 0 -15 -2 -4 -9 8 -5 11 -16
8 -24 -4 -10 2 -14 23 -13 15 1 26 5 23 9 -3 4 1 14 7 22 10 12 9 15 -3 15 -9
0 -17 8 -19 18 -3 16 -4 16 -10 0z"/>
<path d="M7438 1008 c-4 -10 -15 -18 -25 -18 -14 0 -15 -2 -4 -9 8 -5 11 -16
8 -24 -4 -10 2 -14 23 -13 15 1 26 5 23 9 -3 4 1 14 7 22 10 12 9 15 -3 15 -9
0 -17 8 -19 18 -3 16 -4 16 -10 0z"/>
<path d="M1029 888 c-1 -7 0 -23 1 -35 1 -13 -4 -23 -10 -23 -7 0 -9 -16 -4
-49 7 -53 -1 -105 -15 -97 -5 3 -6 -35 -3 -84 5 -88 4 -90 -18 -90 -19 0 -21
-3 -14 -22 4 -13 9 -71 11 -130 3 -87 2 -108 -10 -108 -10 0 -13 -14 -10 -60
2 -33 4 -87 6 -120 2 -33 0 -60 -5 -60 -4 0 -8 5 -8 10 0 6 -12 10 -26 10 -23
0 -26 3 -21 27 7 38 -10 68 -54 98 l-39 25 -40 -26 c-42 -28 -55 -52 -52 -96
2 -22 -2 -28 -18 -28 -11 0 -20 6 -20 14 0 23 -49 74 -111 117 -33 22 -59 45
-59 52 0 7 -5 4 -11 -5 -5 -10 -37 -36 -69 -58 -66 -45 -86 -70 -96 -118 l-6
-32 681 0 681 0 0 68 c0 75 9 96 36 90 16 -3 19 -14 22 -81 l3 -77 39 0 40 0
0 85 c0 74 2 86 20 95 25 14 17 30 -15 30 -21 0 -23 4 -19 32 5 37 -4 50 -57
90 l-36 26 -43 -37 c-38 -32 -44 -43 -43 -74 1 -21 -3 -37 -9 -37 -11 0 -6
105 6 133 6 12 4 17 -9 17 -14 0 -16 9 -13 65 2 48 -1 66 -11 70 -10 4 -12 18
-7 60 3 31 2 56 -4 60 -5 3 -7 12 -4 19 3 8 1 17 -5 21 -7 4 -11 -4 -11 -19 0
-14 -4 -26 -9 -26 -5 0 -7 -27 -4 -60 3 -34 2 -60 -4 -60 -5 0 -7 -28 -5 -65
4 -57 2 -65 -13 -65 -13 0 -16 -5 -11 -22 15 -52 18 -88 8 -88 -6 0 -14 4 -17
10 -3 5 -39 32 -80 61 -55 38 -75 58 -78 77 l-4 27 -2 -27 c-1 -21 -15 -35
-69 -71 -131 -86 -166 -158 -127 -259 6 -15 2 -18 -20 -18 l-27 0 4 100 c3 77
1 101 -10 105 -10 4 -12 27 -9 102 2 54 8 110 12 124 6 22 3 27 -15 32 -20 5
-21 10 -17 69 2 35 8 73 12 86 6 17 4 22 -6 20 -11 -2 -14 13 -13 74 1 43 -3
75 -7 72 -5 -3 -9 8 -9 25 0 29 -19 55 -21 29z"/>
<path d="M5959 888 c-1 -7 0 -23 1 -35 1 -13 -4 -23 -10 -23 -7 0 -9 -16 -4
-49 7 -53 -1 -105 -15 -97 -5 3 -6 -35 -3 -84 5 -88 4 -90 -18 -90 -19 0 -21
-3 -14 -22 4 -13 9 -71 11 -130 3 -87 2 -108 -10 -108 -10 0 -13 -14 -10 -60
2 -33 4 -87 6 -120 2 -33 0 -60 -5 -60 -4 0 -8 5 -8 10 0 6 -12 10 -26 10 -23
0 -26 3 -21 27 7 38 -10 68 -54 98 l-39 25 -40 -26 c-42 -28 -55 -52 -52 -96
2 -22 -2 -28 -18 -28 -11 0 -20 6 -20 14 0 23 -49 74 -111 117 -33 22 -59 45
-59 52 0 7 -5 4 -11 -5 -5 -10 -37 -36 -69 -58 -66 -45 -86 -70 -96 -118 l-6
-32 681 0 681 0 0 68 c0 75 9 96 36 90 16 -3 19 -14 22 -81 l3 -77 39 0 40 0
0 85 c0 74 2 86 20 95 25 14 17 30 -15 30 -21 0 -23 4 -19 32 5 37 -4 50 -57
90 l-36 26 -43 -37 c-38 -32 -44 -43 -43 -74 1 -21 -3 -37 -9 -37 -11 0 -6
105 6 133 6 12 4 17 -9 17 -14 0 -16 9 -13 65 2 48 -1 66 -11 70 -10 4 -12 18
-7 60 3 31 2 56 -4 60 -5 3 -7 12 -4 19 3 8 1 17 -5 21 -7 4 -11 -4 -11 -19 0
-14 -4 -26 -9 -26 -5 0 -7 -27 -4 -60 3 -34 2 -60 -4 -60 -5 0 -7 -28 -5 -65
4 -57 2 -65 -13 -65 -13 0 -16 -5 -11 -22 15 -52 18 -88 8 -88 -6 0 -14 4 -17
10 -3 5 -39 32 -80 61 -55 38 -75 58 -78 77 l-4 27 -2 -27 c-1 -21 -15 -35
-69 -71 -131 -86 -166 -158 -127 -259 6 -15 2 -18 -20 -18 l-27 0 4 100 c3 77
1 101 -10 105 -10 4 -12 27 -9 102 2 54 8 110 12 124 6 22 3 27 -15 32 -20 5
-21 10 -17 69 2 35 8 73 12 86 6 17 4 22 -6 20 -11 -2 -14 13 -13 74 1 43 -3
75 -7 72 -5 -3 -9 8 -9 25 0 29 -19 55 -21 29z"/>
<path d="M3981 814 c-40 -33 -43 -83 -6 -119 13 -14 29 -25 35 -25 7 0 10 -23
8 -67 l-3 -67 -110 -74 c-133 -89 -168 -121 -200 -186 -30 -59 -33 -144 -10
-224 l16 -52 320 0 319 0 11 28 c6 15 16 54 22 87 22 127 -38 225 -201 331
-134 87 -142 97 -142 166 0 44 4 58 14 58 8 0 17 4 20 9 3 4 -5 6 -17 4 -35
-7 -77 32 -77 71 0 35 14 57 45 74 16 9 17 11 3 12 -9 0 -30 -12 -47 -26z"/>
<path d="M8911 814 c-40 -33 -43 -83 -6 -119 13 -14 29 -25 35 -25 7 0 10 -23
8 -67 l-3 -67 -110 -74 c-133 -89 -168 -121 -200 -186 -30 -59 -33 -144 -10
-224 l16 -52 320 0 319 0 11 28 c6 15 16 54 22 87 22 127 -38 225 -201 331
-134 87 -142 97 -142 166 0 44 4 58 14 58 8 0 17 4 20 9 3 4 -5 6 -17 4 -35
-7 -77 32 -77 71 0 35 14 57 45 74 16 9 17 11 3 12 -9 0 -30 -12 -47 -26z"/>
<path d="M4038 756 c-18 -13 -10 -41 14 -42 20 -2 29 27 13 42 -8 8 -16 8 -27
0z"/>
<path d="M8968 756 c-18 -13 -10 -41 14 -42 20 -2 29 27 13 42 -8 8 -16 8 -27
0z"/>
<path d="M4682 454 c-2 -37 -21 -56 -127 -126 -106 -71 -138 -117 -143 -206
-2 -37 1 -79 7 -94 l11 -28 258 0 259 0 11 58 c21 108 -15 182 -130 262 -124
86 -136 97 -141 132 l-4 33 -1 -31z"/>
<path d="M9612 454 c-2 -37 -21 -56 -127 -126 -106 -71 -138 -117 -143 -206
-2 -37 1 -79 7 -94 l11 -28 258 0 259 0 11 58 c21 108 -15 182 -130 262 -124
86 -136 97 -141 132 l-4 33 -1 -31z"/>
<path d="M98 60 c-82 -62 -84 -60 40 -60 62 0 112 4 112 9 0 5 -22 23 -49 41
-28 17 -51 35 -53 39 -2 4 -24 -9 -50 -29z"/>
<path d="M5028 60 c-82 -62 -84 -60 40 -60 62 0 112 4 112 9 0 5 -22 23 -49
41 -28 17 -51 35 -53 39 -2 4 -24 -9 -50 -29z"/>
</g>
</svg>
